Director: Peter Stebbings

Writer:   Peter Stebbings (screenplay)

Contact:  View company contact information for Defendor on IMDbPro.

Genre:    Comedy | Drama See more »

Tagline:  An unexpected hero will rise.

Plot:     A comedy centered around three characters: an everyday guy who comes to believe he's a superhero,
his psychiatrist, and the teenager he befriends

Rating: Rated R for drug use and language throughout, violence and sexual content.

Format                           : MPEG-4
Codec ID                         : M4V 
File size                        : 400 MiB
Duration                         : 1h 35mn
Overall bit rate                 : 584 Kbps


Video
ID                               : 1
Format                           : AVC
Duration                         : 1h 35mn
Bit rate mode                    : Variable
Bit rate                         : 525 Kbps
Maximum bit rate                 : 2 551 Kbps
Width                            : 480 pixels
Height                           : 256 pixels
Display aspect ratio             : 1.875
Frame rate mode                  : Constant
Frame rate                       : 23.976 fps
Resolution                       : 24 bits
Stream size                      : 360 MiB 



Audio
ID                               : 2
Format                           : AAC
Codec ID                         : 40
Duration                         : 1h 35mn
Bit rate mode                    : Variable
Bit rate                         : 56.0 Kbps
Maximum bit rate                 : 67.0 Kbps
Channel(s)                       : 2 channels
Channel positions                : L R
Sampling rate                    : 48.0 KHz
Resolution                       : 16 bits
Stream size                      : 38.4 MiB
Title                            : English
Language                         : English

Ripped by pluto¬¬

Comment seed & enjoy!!